<svg width="55" height="55" viewBox="0 0 55 55" fill="none" xmlns="http://www.w3.org/2000/svg">
<path d="M31.4778 26.0297C32.0711 26.0297 32.4745 25.7449 32.878 24.9854C34.3257 22.28 35.5122 22.0901 36.153 24.4159C36.7938 26.6942 39.2146 26.9315 39.2146 24.7244C39.2146 22.28 35.3699 20.2864 32.6169 21.2832C30.5759 22.0426 29.6267 26.0297 31.4778 26.0297Z" fill="#006B99"/>
<path d="M18.7571 26.7653C18.7571 24.6532 20.2047 23.7988 20.893 25.4838C21.6761 27.3586 23.0526 27.9045 23.5747 26.528C24.5477 24.0124 19.3266 21.5442 16.9771 23.3954C16.0516 24.1311 15.2209 26.2907 15.5532 27.1451C15.9566 28.213 18.7571 27.857 18.7571 26.7653Z" fill="#006B99"/>
<path d="M20.3946 38.6787C26.7549 41.5029 33.21 40.6485 37.4581 36.4241C41.9198 31.9862 40.2112 27.3584 34.4442 28.2365C33.8983 28.3077 32.2845 28.901 30.8843 29.5418C28.0365 30.8233 26.2803 30.9182 22.3407 29.9689C15.8617 28.45 14.2004 35.9495 20.3946 38.6787ZM36.8174 30.0639C37.9091 31.4403 37.4107 33.7898 35.7257 35.3799C34.6103 36.4241 34.729 36.519 33.9695 33.9085C33.6373 32.7456 33.2576 31.559 33.1152 31.2505C32.688 30.1588 36.058 29.0908 36.8174 30.0639ZM29.6977 31.7014C31.0979 31.3217 31.098 31.2979 31.7387 34.3594C32.4507 37.7294 32.4507 37.7769 31.2403 38.2041C28.8908 39.0347 29.1518 38.9872 28.5822 31.9862L29.6977 31.7014ZM24.0257 31.9624H26.6599C26.6599 36.9225 26.7312 36.8513 27.0872 38.655L25.8056 38.4176C23.8358 38.0617 24.0257 37.9193 24.0257 31.9624ZM21.3201 31.1793C22.1508 31.3929 22.5068 37.2548 21.6999 37.2548C20.9404 37.2548 19.1842 35.0951 18.9469 33.8373C18.5672 31.7726 19.5165 30.7046 21.3201 31.1793Z" fill="#006B99"/>
<path d="M35.8446 12.5255C32.1186 10.6507 32.0237 11.3627 35.5361 14.7801C46.5242 25.436 43.5576 41.479 30.3861 42.7843C20.1575 43.8048 12.8716 37.492 13.0615 27.9991C13.2039 20.4522 18.1639 12.5493 26.3279 11.6C27.9654 11.4101 28.0129 11.3627 27.2772 10.9592C26.138 10.3184 22.8155 10.4371 20.7983 11.1491C18.164 12.0984 15.4822 14.0444 13.3937 16.5601C8.14889 22.8254 8.71851 32.6743 12.8479 38.5125C17.9979 45.7983 35.2513 47.0562 41.303 40.5772C48.8974 32.4608 46.002 17.6517 35.8446 12.5255Z" fill="#006B99"/>
</svg>
